<svg width="452" height="123" viewBox="0 0 452 123" fill="none" xmlns="http://www.w3.org/2000/svg">
<path d="M95.1406 9.51562L95.4336 15.7266H94.6914C94.5482 14.6328 94.3529 13.8516 94.1055 13.3828C93.7018 12.6276 93.1615 12.0742 92.4844 11.7227C91.8203 11.3581 90.9414 11.1758 89.8477 11.1758H86.1172V31.4102C86.1172 33.0378 86.293 34.0534 86.6445 34.457C87.1393 35.0039 87.901 35.2773 88.9297 35.2773H89.8477V36H78.6172V35.2773H79.5547C80.6745 35.2773 81.4688 34.9388 81.9375 34.2617C82.224 33.8451 82.3672 32.8945 82.3672 31.4102V11.1758H79.1836C77.9466 11.1758 77.0677 11.2669 76.5469 11.4492C75.8698 11.6966 75.2904 12.1719 74.8086 12.875C74.3268 13.5781 74.0404 14.5286 73.9492 15.7266H73.207L73.5195 9.51562H95.1406ZM104.672 21.8008H116.977V14.2227C116.977 12.8685 116.892 11.9766 116.723 11.5469C116.592 11.2214 116.319 10.9414 115.902 10.707C115.342 10.3945 114.75 10.2383 114.125 10.2383H113.188V9.51562H124.516V10.2383H123.578C122.953 10.2383 122.361 10.388 121.801 10.6875C121.384 10.8958 121.098 11.2148 120.941 11.6445C120.798 12.0612 120.727 12.9206 120.727 14.2227V31.3125C120.727 32.6536 120.811 33.5391 120.98 33.9688C121.111 34.2943 121.378 34.5742 121.781 34.8086C122.354 35.1211 122.953 35.2773 123.578 35.2773H124.516V36H113.188V35.2773H114.125C115.206 35.2773 115.993 34.9583 116.488 34.3203C116.814 33.9036 116.977 32.901 116.977 31.3125V23.2461H104.672V31.3125C104.672 32.6536 104.757 33.5391 104.926 33.9688C105.056 34.2943 105.329 34.5742 105.746 34.8086C106.306 35.1211 106.898 35.2773 107.523 35.2773H108.48V36H97.1328V35.2773H98.0703C99.1641 35.2773 99.9583 34.9583 100.453 34.3203C100.766 33.9036 100.922 32.901 100.922 31.3125V14.2227C100.922 12.8685 100.837 11.9766 100.668 11.5469C100.538 11.2214 100.271 10.9414 99.8672 10.707C99.2943 10.3945 98.6953 10.2383 98.0703 10.2383H97.1328V9.51562H108.48V10.2383H107.523C106.898 10.2383 106.306 10.388 105.746 10.6875C105.342 10.8958 105.062 11.2148 104.906 11.6445C104.75 12.0612 104.672 12.9206 104.672 14.2227V21.8008ZM137.699 35.2773V36H126.352V35.2773H127.289C128.383 35.2773 129.177 34.9583 129.672 34.3203C129.984 33.9036 130.141 32.901 130.141 31.3125V14.2031C130.141 12.862 130.056 11.9766 129.887 11.5469C129.757 11.2214 129.49 10.9414 129.086 10.707C128.513 10.3945 127.914 10.2383 127.289 10.2383H126.352V9.51562H137.699V10.2383H136.742C135.661 10.2383 134.874 10.5573 134.379 11.1953C134.053 11.612 133.891 12.6146 133.891 14.2031V31.3125C133.891 32.6536 133.975 33.5391 134.145 33.9688C134.275 34.2943 134.548 34.5742 134.965 34.8086C135.525 35.1211 136.117 35.2773 136.742 35.2773H137.699ZM157.016 8.91016V18.0703H156.293C156.059 16.3125 155.635 14.9128 155.023 13.8711C154.424 12.8294 153.565 12.0026 152.445 11.3906C151.326 10.7786 150.167 10.4727 148.969 10.4727C147.615 10.4727 146.495 10.8893 145.609 11.7227C144.724 12.543 144.281 13.4805 144.281 14.5352C144.281 15.3424 144.561 16.0781 145.121 16.7422C145.928 17.7188 147.849 19.0208 150.883 20.6484C153.357 21.9766 155.043 22.9987 155.941 23.7148C156.853 24.418 157.549 25.2513 158.031 26.2148C158.526 27.1784 158.773 28.1875 158.773 29.2422C158.773 31.2474 157.992 32.9792 156.43 34.4375C154.88 35.8828 152.882 36.6055 150.434 36.6055C149.665 36.6055 148.943 36.5469 148.266 36.4297C147.862 36.3646 147.022 36.1302 145.746 35.7266C144.483 35.3099 143.682 35.1016 143.344 35.1016C143.018 35.1016 142.758 35.1992 142.562 35.3945C142.38 35.5898 142.243 35.9935 142.152 36.6055H141.43V27.5234H142.152C142.491 29.4245 142.947 30.8503 143.52 31.8008C144.092 32.7383 144.965 33.5195 146.137 34.1445C147.322 34.7695 148.617 35.082 150.023 35.082C151.651 35.082 152.934 34.6523 153.871 33.793C154.822 32.9336 155.297 31.918 155.297 30.7461C155.297 30.0951 155.115 29.4375 154.75 28.7734C154.398 28.1094 153.845 27.4909 153.09 26.918C152.582 26.5273 151.195 25.7005 148.93 24.4375C146.664 23.1615 145.049 22.1458 144.086 21.3906C143.135 20.6354 142.413 19.8021 141.918 18.8906C141.423 17.9792 141.176 16.9766 141.176 15.8828C141.176 13.9818 141.905 12.3477 143.363 10.9805C144.822 9.60026 146.677 8.91016 148.93 8.91016C150.336 8.91016 151.827 9.25521 153.402 9.94531C154.132 10.2708 154.646 10.4336 154.945 10.4336C155.284 10.4336 155.557 10.3359 155.766 10.1406C155.987 9.93229 156.163 9.52214 156.293 8.91016H157.016ZM179.145 23.5977V31.3125C179.145 32.9792 179.327 34.0143 179.691 34.418C180.186 34.9909 180.935 35.2773 181.938 35.2773H182.953V36H171.605V35.2773H172.602C173.721 35.2773 174.522 34.9128 175.004 34.1836C175.264 33.7799 175.395 32.8229 175.395 31.3125V14.2031C175.395 12.5365 175.219 11.5013 174.867 11.0977C174.359 10.5247 173.604 10.2383 172.602 10.2383H171.605V9.51562H181.312C183.682 9.51562 185.551 9.76302 186.918 10.2578C188.285 10.7396 189.438 11.5599 190.375 12.7188C191.312 13.8776 191.781 15.2513 191.781 16.8398C191.781 19.0013 191.065 20.7591 189.633 22.1133C188.214 23.4674 186.202 24.1445 183.598 24.1445C182.96 24.1445 182.27 24.099 181.527 24.0078C180.785 23.9167 179.991 23.7799 179.145 23.5977ZM179.145 22.4844C179.835 22.6146 180.447 22.7122 180.98 22.7773C181.514 22.8424 181.97 22.875 182.348 22.875C183.702 22.875 184.867 22.3542 185.844 21.3125C186.833 20.2578 187.328 18.8971 187.328 17.2305C187.328 16.0846 187.094 15.0234 186.625 14.0469C186.156 13.0573 185.492 12.3216 184.633 11.8398C183.773 11.3451 182.797 11.0977 181.703 11.0977C181.039 11.0977 180.186 11.2214 179.145 11.4688V22.4844ZM207.836 8.91016C211.273 8.91016 214.249 10.2188 216.762 12.8359C219.288 15.4401 220.551 18.6953 220.551 22.6016C220.551 26.625 219.281 29.9648 216.742 32.6211C214.203 35.2773 211.13 36.6055 207.523 36.6055C203.878 36.6055 200.811 35.3099 198.324 32.7188C195.85 30.1276 194.613 26.7747 194.613 22.6602C194.613 18.4544 196.046 15.0234 198.91 12.3672C201.397 10.0625 204.372 8.91016 207.836 8.91016ZM207.465 10.3359C205.095 10.3359 203.194 11.2148 201.762 12.9727C199.978 15.1602 199.086 18.3633 199.086 22.582C199.086 26.9049 200.01 30.2318 201.859 32.5625C203.279 34.3333 205.154 35.2188 207.484 35.2188C209.971 35.2188 212.022 34.2487 213.637 32.3086C215.264 30.3685 216.078 27.3086 216.078 23.1289C216.078 18.5977 215.186 15.2188 213.402 12.9922C211.97 11.2214 209.991 10.3359 207.465 10.3359ZM240.453 8.91016V18.0703H239.73C239.496 16.3125 239.073 14.9128 238.461 13.8711C237.862 12.8294 237.003 12.0026 235.883 11.3906C234.763 10.7786 233.604 10.4727 232.406 10.4727C231.052 10.4727 229.932 10.8893 229.047 11.7227C228.161 12.543 227.719 13.4805 227.719 14.5352C227.719 15.3424 227.999 16.0781 228.559 16.7422C229.366 17.7188 231.286 19.0208 234.32 20.6484C236.794 21.9766 238.48 22.9987 239.379 23.7148C240.29 24.418 240.987 25.2513 241.469 26.2148C241.964 27.1784 242.211 28.1875 242.211 29.2422C242.211 31.2474 241.43 32.9792 239.867 34.4375C238.318 35.8828 236.319 36.6055 233.871 36.6055C233.103 36.6055 232.38 36.5469 231.703 36.4297C231.299 36.3646 230.46 36.1302 229.184 35.7266C227.921 35.3099 227.12 35.1016 226.781 35.1016C226.456 35.1016 226.195 35.1992 226 35.3945C225.818 35.5898 225.681 35.9935 225.59 36.6055H224.867V27.5234H225.59C225.928 29.4245 226.384 30.8503 226.957 31.8008C227.53 32.7383 228.402 33.5195 229.574 34.1445C230.759 34.7695 232.055 35.082 233.461 35.082C235.089 35.082 236.371 34.6523 237.309 33.793C238.259 32.9336 238.734 31.918 238.734 30.7461C238.734 30.0951 238.552 29.4375 238.188 28.7734C237.836 28.1094 237.283 27.4909 236.527 26.918C236.02 26.5273 234.633 25.7005 232.367 24.4375C230.102 23.1615 228.487 22.1458 227.523 21.3906C226.573 20.6354 225.85 19.8021 225.355 18.8906C224.861 17.9792 224.613 16.9766 224.613 15.8828C224.613 13.9818 225.342 12.3477 226.801 10.9805C228.259 9.60026 230.115 8.91016 232.367 8.91016C233.773 8.91016 235.264 9.25521 236.84 9.94531C237.569 10.2708 238.083 10.4336 238.383 10.4336C238.721 10.4336 238.995 10.3359 239.203 10.1406C239.424 9.93229 239.6 9.52214 239.73 8.91016H240.453ZM267.523 9.51562L267.816 15.7266H267.074C266.931 14.6328 266.736 13.8516 266.488 13.3828C266.085 12.6276 265.544 12.0742 264.867 11.7227C264.203 11.3581 263.324 11.1758 262.23 11.1758H258.5V31.4102C258.5 33.0378 258.676 34.0534 259.027 34.457C259.522 35.0039 260.284 35.2773 261.312 35.2773H262.23V36H251V35.2773H251.938C253.057 35.2773 253.852 34.9388 254.32 34.2617C254.607 33.8451 254.75 32.8945 254.75 31.4102V11.1758H251.566C250.329 11.1758 249.451 11.2669 248.93 11.4492C248.253 11.6966 247.673 12.1719 247.191 12.875C246.71 13.5781 246.423 14.5286 246.332 15.7266H245.59L245.902 9.51562H267.523ZM292.914 8.91016L293.52 17.9141H292.914C292.107 15.2188 290.954 13.2786 289.457 12.0938C287.96 10.9089 286.163 10.3164 284.066 10.3164C282.309 10.3164 280.72 10.7656 279.301 11.6641C277.882 12.5495 276.762 13.9688 275.941 15.9219C275.134 17.875 274.73 20.3034 274.73 23.207C274.73 25.6029 275.115 27.6797 275.883 29.4375C276.651 31.1953 277.803 32.543 279.34 33.4805C280.889 34.418 282.654 34.8867 284.633 34.8867C286.352 34.8867 287.868 34.5221 289.184 33.793C290.499 33.0508 291.944 31.5859 293.52 29.3984L294.125 29.7891C292.797 32.1458 291.247 33.8711 289.477 34.9648C287.706 36.0586 285.603 36.6055 283.168 36.6055C278.78 36.6055 275.382 34.9779 272.973 31.7227C271.176 29.3008 270.277 26.4492 270.277 23.168C270.277 20.5247 270.87 18.0964 272.055 15.8828C273.24 13.6693 274.867 11.957 276.938 10.7461C279.021 9.52214 281.293 8.91016 283.754 8.91016C285.668 8.91016 287.556 9.37891 289.418 10.3164C289.965 10.6029 290.355 10.7461 290.59 10.7461C290.941 10.7461 291.247 10.6224 291.508 10.375C291.846 10.0234 292.087 9.53516 292.23 8.91016H292.914ZM313.812 27.1328H303.559L301.762 31.3125C301.319 32.3411 301.098 33.1094 301.098 33.6172C301.098 34.0208 301.286 34.3789 301.664 34.6914C302.055 34.9909 302.888 35.1862 304.164 35.2773V36H295.824V35.2773C296.931 35.082 297.647 34.8281 297.973 34.5156C298.637 33.8906 299.372 32.6211 300.18 30.707L309.496 8.91016H310.18L319.398 30.9414C320.141 32.7122 320.811 33.8646 321.41 34.3984C322.022 34.9193 322.868 35.2122 323.949 35.2773V36H313.5V35.2773C314.555 35.2253 315.264 35.0495 315.629 34.75C316.007 34.4505 316.195 34.0859 316.195 33.6562C316.195 33.0833 315.935 32.1784 315.414 30.9414L313.812 27.1328ZM313.266 25.6875L308.773 14.9844L304.164 25.6875H313.266ZM351.449 36H344.379L335.414 23.6172C334.75 23.6432 334.21 23.6562 333.793 23.6562C333.624 23.6562 333.441 23.6562 333.246 23.6562C333.051 23.6432 332.849 23.6302 332.641 23.6172V31.3125C332.641 32.9792 332.823 34.0143 333.188 34.418C333.682 34.9909 334.424 35.2773 335.414 35.2773H336.449V36H325.102V35.2773H326.098C327.217 35.2773 328.018 34.9128 328.5 34.1836C328.773 33.7799 328.91 32.8229 328.91 31.3125V14.2031C328.91 12.5365 328.728 11.5013 328.363 11.0977C327.855 10.5247 327.1 10.2383 326.098 10.2383H325.102V9.51562H334.75C337.562 9.51562 339.633 9.72396 340.961 10.1406C342.302 10.5443 343.435 11.2995 344.359 12.4062C345.297 13.5 345.766 14.8086 345.766 16.332C345.766 17.9596 345.232 19.3724 344.164 20.5703C343.109 21.7682 341.469 22.6146 339.242 23.1094L344.711 30.707C345.961 32.4518 347.035 33.6107 347.934 34.1836C348.832 34.7565 350.004 35.1211 351.449 35.2773V36ZM332.641 22.3867C332.888 22.3867 333.103 22.3932 333.285 22.4062C333.467 22.4062 333.617 22.4062 333.734 22.4062C336.26 22.4062 338.161 21.8594 339.438 20.7656C340.727 19.6719 341.371 18.2786 341.371 16.5859C341.371 14.9323 340.85 13.5911 339.809 12.5625C338.78 11.5208 337.413 11 335.707 11C334.952 11 333.93 11.1237 332.641 11.3711V22.3867ZM351.781 36V35.2773H352.777C353.897 35.2773 354.691 34.9193 355.16 34.2031C355.447 33.7734 355.59 32.8099 355.59 31.3125V14.2031C355.59 12.5495 355.408 11.5143 355.043 11.0977C354.535 10.5247 353.78 10.2383 352.777 10.2383H351.781V9.51562H362.562C366.521 9.51562 369.529 9.96484 371.586 10.8633C373.656 11.7617 375.316 13.2591 376.566 15.3555C377.829 17.4518 378.461 19.8737 378.461 22.6211C378.461 26.306 377.341 29.3854 375.102 31.8594C372.589 34.6198 368.76 36 363.617 36H351.781ZM359.34 34.0859C360.993 34.4505 362.38 34.6328 363.5 34.6328C366.521 34.6328 369.027 33.5716 371.02 31.4492C373.012 29.3268 374.008 26.4492 374.008 22.8164C374.008 19.1576 373.012 16.2734 371.02 14.1641C369.027 12.0547 366.469 11 363.344 11C362.172 11 360.837 11.1888 359.34 11.5664V34.0859Z" fill="#B64926"/>
<path d="M5.96094 96.2383V95.5156H17.3086V96.2383H16.3516C15.2708 96.2383 14.4831 96.5573 13.9883 97.1953C13.6758 97.612 13.5195 98.6146 13.5195 100.203V113.152C13.5195 115.145 13.2982 116.759 12.8555 117.996C12.4258 119.233 11.6771 120.314 10.6094 121.238C9.54167 122.15 8.2526 122.605 6.74219 122.605C5.51823 122.605 4.55469 122.306 3.85156 121.707C3.14844 121.095 2.79688 120.398 2.79688 119.617C2.79688 118.979 2.95964 118.497 3.28516 118.172C3.71484 117.768 4.21615 117.566 4.78906 117.566C5.20573 117.566 5.57682 117.703 5.90234 117.977C6.24089 118.25 6.66406 118.979 7.17188 120.164C7.47135 120.867 7.85547 121.219 8.32422 121.219C8.67578 121.219 9.0013 121.004 9.30078 120.574C9.61328 120.145 9.76953 119.383 9.76953 118.289V100.203C9.76953 98.862 9.6849 97.9766 9.51562 97.5469C9.38542 97.2214 9.11198 96.9414 8.69531 96.707C8.13542 96.3945 7.54297 96.2383 6.91797 96.2383H5.96094ZM32.1914 94.9102C35.6289 94.9102 38.6042 96.2188 41.1172 98.8359C43.6432 101.44 44.9062 104.695 44.9062 108.602C44.9062 112.625 43.6367 115.965 41.0977 118.621C38.5586 121.277 35.4857 122.605 31.8789 122.605C28.2331 122.605 25.1667 121.31 22.6797 118.719C20.2057 116.128 18.9688 112.775 18.9688 108.66C18.9688 104.454 20.401 101.023 23.2656 98.3672C25.7526 96.0625 28.7279 94.9102 32.1914 94.9102ZM31.8203 96.3359C29.4505 96.3359 27.5495 97.2148 26.1172 98.9727C24.3333 101.16 23.4414 104.363 23.4414 108.582C23.4414 112.905 24.3659 116.232 26.2148 118.562C27.6341 120.333 29.5091 121.219 31.8398 121.219C34.3268 121.219 36.3776 120.249 37.9922 118.309C39.6198 116.368 40.4336 113.309 40.4336 109.129C40.4336 104.598 39.5417 101.219 37.7578 98.9922C36.3255 97.2214 34.3464 96.3359 31.8203 96.3359ZM65.5508 96.2383V95.5156H74.9258V96.2383H73.9297C72.888 96.2383 72.0872 96.6745 71.5273 97.5469C71.2539 97.9505 71.1172 98.888 71.1172 100.359V111.102C71.1172 113.758 70.8503 115.822 70.3164 117.293C69.7956 118.751 68.7604 120.008 67.2109 121.062C65.6745 122.104 63.5781 122.625 60.9219 122.625C58.0312 122.625 55.8372 122.124 54.3398 121.121C52.8424 120.118 51.7812 118.771 51.1562 117.078C50.7396 115.919 50.5312 113.745 50.5312 110.555V100.203C50.5312 98.5755 50.3034 97.5078 49.8477 97C49.4049 96.4922 48.6823 96.2383 47.6797 96.2383H46.6836V95.5156H58.1289V96.2383H57.1133C56.0195 96.2383 55.2383 96.5833 54.7695 97.2734C54.444 97.7422 54.2812 98.7188 54.2812 100.203V111.746C54.2812 112.775 54.3724 113.953 54.5547 115.281C54.75 116.609 55.0951 117.645 55.5898 118.387C56.0846 119.129 56.7943 119.741 57.7188 120.223C58.6562 120.704 59.8021 120.945 61.1562 120.945C62.888 120.945 64.4375 120.568 65.8047 119.812C67.1719 119.057 68.1029 118.094 68.5977 116.922C69.1055 115.737 69.3594 113.738 69.3594 110.926V100.203C69.3594 98.5495 69.1771 97.5143 68.8125 97.0977C68.3047 96.5247 67.5495 96.2383 66.5469 96.2383H65.5508ZM102.406 122H95.3359L86.3711 109.617C85.707 109.643 85.1667 109.656 84.75 109.656C84.5807 109.656 84.3984 109.656 84.2031 109.656C84.0078 109.643 83.806 109.63 83.5977 109.617V117.312C83.5977 118.979 83.7799 120.014 84.1445 120.418C84.6393 120.991 85.3815 121.277 86.3711 121.277H87.4062V122H76.0586V121.277H77.0547C78.1745 121.277 78.9753 120.913 79.457 120.184C79.7305 119.78 79.8672 118.823 79.8672 117.312V100.203C79.8672 98.5365 79.6849 97.5013 79.3203 97.0977C78.8125 96.5247 78.0573 96.2383 77.0547 96.2383H76.0586V95.5156H85.707C88.5195 95.5156 90.5898 95.724 91.918 96.1406C93.2591 96.5443 94.3919 97.2995 95.3164 98.4062C96.2539 99.5 96.7227 100.809 96.7227 102.332C96.7227 103.96 96.1888 105.372 95.1211 106.57C94.0664 107.768 92.4258 108.615 90.1992 109.109L95.668 116.707C96.918 118.452 97.9922 119.611 98.8906 120.184C99.7891 120.757 100.961 121.121 102.406 121.277V122ZM83.5977 108.387C83.8451 108.387 84.0599 108.393 84.2422 108.406C84.4245 108.406 84.5742 108.406 84.6914 108.406C87.2174 108.406 89.1185 107.859 90.3945 106.766C91.6836 105.672 92.3281 104.279 92.3281 102.586C92.3281 100.932 91.8073 99.5911 90.7656 98.5625C89.737 97.5208 88.3698 97 86.6641 97C85.9089 97 84.8867 97.1237 83.5977 97.3711V108.387ZM101.527 95.5156H108.715L124.906 115.379V100.105C124.906 98.4779 124.724 97.4622 124.359 97.0586C123.878 96.5117 123.116 96.2383 122.074 96.2383H121.156V95.5156H130.375V96.2383H129.438C128.318 96.2383 127.523 96.5768 127.055 97.2539C126.768 97.6706 126.625 98.6211 126.625 100.105V122.43H125.922L108.461 101.102V117.41C108.461 119.038 108.637 120.053 108.988 120.457C109.483 121.004 110.245 121.277 111.273 121.277H112.211V122H102.992V121.277H103.91C105.043 121.277 105.844 120.939 106.312 120.262C106.599 119.845 106.742 118.895 106.742 117.41V98.9922C105.974 98.0938 105.388 97.5013 104.984 97.2148C104.594 96.9284 104.014 96.6615 103.246 96.4141C102.868 96.2969 102.296 96.2383 101.527 96.2383V95.5156ZM139.32 96.9609V107.43H145.141C146.651 107.43 147.66 107.202 148.168 106.746C148.845 106.147 149.223 105.092 149.301 103.582H150.023V112.801H149.301C149.118 111.512 148.936 110.685 148.754 110.32C148.52 109.865 148.135 109.507 147.602 109.246C147.068 108.986 146.247 108.855 145.141 108.855H139.32V117.586C139.32 118.758 139.372 119.474 139.477 119.734C139.581 119.982 139.763 120.184 140.023 120.34C140.284 120.483 140.779 120.555 141.508 120.555H146C147.497 120.555 148.585 120.451 149.262 120.242C149.939 120.034 150.59 119.624 151.215 119.012C152.022 118.204 152.849 116.987 153.695 115.359H154.477L152.191 122H131.781V121.277H132.719C133.344 121.277 133.936 121.128 134.496 120.828C134.913 120.62 135.193 120.307 135.336 119.891C135.492 119.474 135.57 118.621 135.57 117.332V100.125C135.57 98.4453 135.401 97.4102 135.062 97.0195C134.594 96.4987 133.812 96.2383 132.719 96.2383H131.781V95.5156H152.191L152.484 101.316H151.723C151.449 99.9232 151.143 98.9661 150.805 98.4453C150.479 97.9245 149.991 97.5273 149.34 97.2539C148.819 97.0586 147.901 96.9609 146.586 96.9609H139.32ZM174.477 95.5156H183.715V96.2383H183.207C182.868 96.2383 182.374 96.388 181.723 96.6875C181.072 96.987 180.479 97.4167 179.945 97.9766C179.411 98.5365 178.754 99.4479 177.973 100.711L171.586 110.77V117.41C171.586 119.038 171.768 120.053 172.133 120.457C172.628 121.004 173.409 121.277 174.477 121.277H175.336V122H164.086V121.277H165.023C166.143 121.277 166.938 120.939 167.406 120.262C167.693 119.845 167.836 118.895 167.836 117.41V111.141L160.57 100.047C159.711 98.7448 159.125 97.931 158.812 97.6055C158.513 97.2799 157.882 96.8893 156.918 96.4336C156.658 96.3034 156.28 96.2383 155.785 96.2383V95.5156H167.113V96.2383H166.527C165.915 96.2383 165.349 96.3815 164.828 96.668C164.32 96.9544 164.066 97.3841 164.066 97.957C164.066 98.4258 164.464 99.2721 165.258 100.496L170.785 109.031L175.98 100.867C176.762 99.6432 177.152 98.7318 177.152 98.1328C177.152 97.7682 177.055 97.4427 176.859 97.1562C176.677 96.8698 176.41 96.6484 176.059 96.4922C175.707 96.3229 175.18 96.2383 174.477 96.2383V95.5156ZM217.465 95.5156L217.758 101.727H217.016C216.872 100.633 216.677 99.8516 216.43 99.3828C216.026 98.6276 215.486 98.0742 214.809 97.7227C214.145 97.3581 213.266 97.1758 212.172 97.1758H208.441V117.41C208.441 119.038 208.617 120.053 208.969 120.457C209.464 121.004 210.225 121.277 211.254 121.277H212.172V122H200.941V121.277H201.879C202.999 121.277 203.793 120.939 204.262 120.262C204.548 119.845 204.691 118.895 204.691 117.41V97.1758H201.508C200.271 97.1758 199.392 97.2669 198.871 97.4492C198.194 97.6966 197.615 98.1719 197.133 98.875C196.651 99.5781 196.365 100.529 196.273 101.727H195.531L195.844 95.5156H217.465ZM233.402 94.9102C236.84 94.9102 239.815 96.2188 242.328 98.8359C244.854 101.44 246.117 104.695 246.117 108.602C246.117 112.625 244.848 115.965 242.309 118.621C239.77 121.277 236.697 122.605 233.09 122.605C229.444 122.605 226.378 121.31 223.891 118.719C221.417 116.128 220.18 112.775 220.18 108.66C220.18 104.454 221.612 101.023 224.477 98.3672C226.964 96.0625 229.939 94.9102 233.402 94.9102ZM233.031 96.3359C230.661 96.3359 228.76 97.2148 227.328 98.9727C225.544 101.16 224.652 104.363 224.652 108.582C224.652 112.905 225.577 116.232 227.426 118.562C228.845 120.333 230.72 121.219 233.051 121.219C235.538 121.219 237.589 120.249 239.203 118.309C240.831 116.368 241.645 113.309 241.645 109.129C241.645 104.598 240.753 101.219 238.969 98.9922C237.536 97.2214 235.557 96.3359 233.031 96.3359ZM280.824 95.5156L281.117 101.727H280.375C280.232 100.633 280.036 99.8516 279.789 99.3828C279.385 98.6276 278.845 98.0742 278.168 97.7227C277.504 97.3581 276.625 97.1758 275.531 97.1758H271.801V117.41C271.801 119.038 271.977 120.053 272.328 120.457C272.823 121.004 273.585 121.277 274.613 121.277H275.531V122H264.301V121.277H265.238C266.358 121.277 267.152 120.939 267.621 120.262C267.908 119.845 268.051 118.895 268.051 117.41V97.1758H264.867C263.63 97.1758 262.751 97.2669 262.23 97.4492C261.553 97.6966 260.974 98.1719 260.492 98.875C260.01 99.5781 259.724 100.529 259.633 101.727H258.891L259.203 95.5156H280.824ZM290.355 107.801H302.66V100.223C302.66 98.8685 302.576 97.9766 302.406 97.5469C302.276 97.2214 302.003 96.9414 301.586 96.707C301.026 96.3945 300.434 96.2383 299.809 96.2383H298.871V95.5156H310.199V96.2383H309.262C308.637 96.2383 308.044 96.388 307.484 96.6875C307.068 96.8958 306.781 97.2148 306.625 97.6445C306.482 98.0612 306.41 98.9206 306.41 100.223V117.312C306.41 118.654 306.495 119.539 306.664 119.969C306.794 120.294 307.061 120.574 307.465 120.809C308.038 121.121 308.637 121.277 309.262 121.277H310.199V122H298.871V121.277H299.809C300.889 121.277 301.677 120.958 302.172 120.32C302.497 119.904 302.66 118.901 302.66 117.312V109.246H290.355V117.312C290.355 118.654 290.44 119.539 290.609 119.969C290.74 120.294 291.013 120.574 291.43 120.809C291.99 121.121 292.582 121.277 293.207 121.277H294.164V122H282.816V121.277H283.754C284.848 121.277 285.642 120.958 286.137 120.32C286.449 119.904 286.605 118.901 286.605 117.312V100.223C286.605 98.8685 286.521 97.9766 286.352 97.5469C286.221 97.2214 285.954 96.9414 285.551 96.707C284.978 96.3945 284.379 96.2383 283.754 96.2383H282.816V95.5156H294.164V96.2383H293.207C292.582 96.2383 291.99 96.388 291.43 96.6875C291.026 96.8958 290.746 97.2148 290.59 97.6445C290.434 98.0612 290.355 98.9206 290.355 100.223V107.801ZM319.398 96.9609V107.43H325.219C326.729 107.43 327.738 107.202 328.246 106.746C328.923 106.147 329.301 105.092 329.379 103.582H330.102V112.801H329.379C329.197 111.512 329.014 110.685 328.832 110.32C328.598 109.865 328.214 109.507 327.68 109.246C327.146 108.986 326.326 108.855 325.219 108.855H319.398V117.586C319.398 118.758 319.451 119.474 319.555 119.734C319.659 119.982 319.841 120.184 320.102 120.34C320.362 120.483 320.857 120.555 321.586 120.555H326.078C327.576 120.555 328.663 120.451 329.34 120.242C330.017 120.034 330.668 119.624 331.293 119.012C332.1 118.204 332.927 116.987 333.773 115.359H334.555L332.27 122H311.859V121.277H312.797C313.422 121.277 314.014 121.128 314.574 120.828C314.991 120.62 315.271 120.307 315.414 119.891C315.57 119.474 315.648 118.621 315.648 117.332V100.125C315.648 98.4453 315.479 97.4102 315.141 97.0195C314.672 96.4987 313.891 96.2383 312.797 96.2383H311.859V95.5156H332.27L332.562 101.316H331.801C331.527 99.9232 331.221 98.9661 330.883 98.4453C330.557 97.9245 330.069 97.5273 329.418 97.2539C328.897 97.0586 327.979 96.9609 326.664 96.9609H319.398ZM353.695 109.598V117.312C353.695 118.979 353.878 120.014 354.242 120.418C354.737 120.991 355.486 121.277 356.488 121.277H357.504V122H346.156V121.277H347.152C348.272 121.277 349.073 120.913 349.555 120.184C349.815 119.78 349.945 118.823 349.945 117.312V100.203C349.945 98.5365 349.77 97.5013 349.418 97.0977C348.91 96.5247 348.155 96.2383 347.152 96.2383H346.156V95.5156H355.863C358.233 95.5156 360.102 95.763 361.469 96.2578C362.836 96.7396 363.988 97.5599 364.926 98.7188C365.863 99.8776 366.332 101.251 366.332 102.84C366.332 105.001 365.616 106.759 364.184 108.113C362.764 109.467 360.753 110.145 358.148 110.145C357.51 110.145 356.82 110.099 356.078 110.008C355.336 109.917 354.542 109.78 353.695 109.598ZM353.695 108.484C354.385 108.615 354.997 108.712 355.531 108.777C356.065 108.842 356.521 108.875 356.898 108.875C358.253 108.875 359.418 108.354 360.395 107.312C361.384 106.258 361.879 104.897 361.879 103.23C361.879 102.085 361.645 101.023 361.176 100.047C360.707 99.0573 360.043 98.3216 359.184 97.8398C358.324 97.3451 357.348 97.0977 356.254 97.0977C355.59 97.0977 354.737 97.2214 353.695 97.4688V108.484ZM376.117 96.9609V107.43H381.938C383.448 107.43 384.457 107.202 384.965 106.746C385.642 106.147 386.02 105.092 386.098 103.582H386.82V112.801H386.098C385.915 111.512 385.733 110.685 385.551 110.32C385.316 109.865 384.932 109.507 384.398 109.246C383.865 108.986 383.044 108.855 381.938 108.855H376.117V117.586C376.117 118.758 376.169 119.474 376.273 119.734C376.378 119.982 376.56 120.184 376.82 120.34C377.081 120.483 377.576 120.555 378.305 120.555H382.797C384.294 120.555 385.382 120.451 386.059 120.242C386.736 120.034 387.387 119.624 388.012 119.012C388.819 118.204 389.646 116.987 390.492 115.359H391.273L388.988 122H368.578V121.277H369.516C370.141 121.277 370.733 121.128 371.293 120.828C371.71 120.62 371.99 120.307 372.133 119.891C372.289 119.474 372.367 118.621 372.367 117.332V100.125C372.367 98.4453 372.198 97.4102 371.859 97.0195C371.391 96.4987 370.609 96.2383 369.516 96.2383H368.578V95.5156H388.988L389.281 101.316H388.52C388.246 99.9232 387.94 98.9661 387.602 98.4453C387.276 97.9245 386.788 97.5273 386.137 97.2539C385.616 97.0586 384.698 96.9609 383.383 96.9609H376.117ZM410.512 113.133H400.258L398.461 117.312C398.018 118.341 397.797 119.109 397.797 119.617C397.797 120.021 397.986 120.379 398.363 120.691C398.754 120.991 399.587 121.186 400.863 121.277V122H392.523V121.277C393.63 121.082 394.346 120.828 394.672 120.516C395.336 119.891 396.072 118.621 396.879 116.707L406.195 94.9102H406.879L416.098 116.941C416.84 118.712 417.51 119.865 418.109 120.398C418.721 120.919 419.568 121.212 420.648 121.277V122H410.199V121.277C411.254 121.225 411.964 121.049 412.328 120.75C412.706 120.451 412.895 120.086 412.895 119.656C412.895 119.083 412.634 118.178 412.113 116.941L410.512 113.133ZM409.965 111.688L405.473 100.984L400.863 111.688H409.965ZM433.07 107.312L442.836 117.02C444.438 118.621 445.805 119.715 446.938 120.301C448.07 120.874 449.203 121.199 450.336 121.277V122H437.738V121.277C438.493 121.277 439.034 121.154 439.359 120.906C439.698 120.646 439.867 120.359 439.867 120.047C439.867 119.734 439.802 119.454 439.672 119.207C439.555 118.96 439.151 118.497 438.461 117.82L429.32 108.777V117.312C429.32 118.654 429.405 119.539 429.574 119.969C429.704 120.294 429.978 120.574 430.395 120.809C430.954 121.121 431.547 121.277 432.172 121.277H433.07V122H421.781V121.277H422.719C423.812 121.277 424.607 120.958 425.102 120.32C425.414 119.904 425.57 118.901 425.57 117.312V100.203C425.57 98.862 425.486 97.9701 425.316 97.5273C425.186 97.2148 424.919 96.9414 424.516 96.707C423.943 96.3945 423.344 96.2383 422.719 96.2383H421.781V95.5156H433.07V96.2383H432.172C431.56 96.2383 430.967 96.388 430.395 96.6875C429.991 96.8958 429.711 97.2083 429.555 97.625C429.398 98.0417 429.32 98.901 429.32 100.203V108.309C429.581 108.061 430.473 107.234 431.996 105.828C435.863 102.286 438.201 99.9232 439.008 98.7383C439.359 98.2174 439.535 97.7617 439.535 97.3711C439.535 97.0716 439.398 96.8112 439.125 96.5898C438.852 96.3555 438.389 96.2383 437.738 96.2383H437.133V95.5156H446.859V96.2383C446.286 96.2513 445.766 96.3294 445.297 96.4727C444.828 96.6159 444.255 96.8958 443.578 97.3125C442.901 97.7161 442.068 98.3737 441.078 99.2852C440.792 99.5456 439.47 100.88 437.113 103.289L433.07 107.312Z" fill="#B64926"/>
<path d="M189.988 52.5586C190.371 52.5586 190.695 52.6953 190.959 52.9688C191.232 53.2331 191.369 53.5566 191.369 53.9395C191.369 54.3223 191.232 54.6504 190.959 54.9238C190.695 55.1973 190.371 55.334 189.988 55.334C189.605 55.334 189.277 55.1973 189.004 54.9238C188.73 54.6504 188.594 54.3223 188.594 53.9395C188.594 53.5566 188.726 53.2331 188.99 52.9688C189.264 52.6953 189.596 52.5586 189.988 52.5586ZM191.123 59.1074V69.1699C191.123 69.9538 191.178 70.4779 191.287 70.7422C191.406 70.9974 191.574 71.1888 191.793 71.3164C192.021 71.444 192.431 71.5078 193.023 71.5078V72H186.939V71.5078C187.55 71.5078 187.96 71.4486 188.17 71.3301C188.38 71.2116 188.544 71.0156 188.662 70.7422C188.79 70.4688 188.854 69.9447 188.854 69.1699V64.3438C188.854 62.9857 188.812 62.1061 188.73 61.7051C188.667 61.4134 188.566 61.2129 188.43 61.1035C188.293 60.985 188.106 60.9258 187.869 60.9258C187.614 60.9258 187.304 60.9941 186.939 61.1309L186.748 60.6387L190.521 59.1074H191.123ZM202.689 59.1074V63.373H202.238C201.892 62.0332 201.445 61.1217 200.898 60.6387C200.361 60.1556 199.673 59.9141 198.834 59.9141C198.196 59.9141 197.681 60.0827 197.289 60.4199C196.897 60.7572 196.701 61.1309 196.701 61.541C196.701 62.0514 196.847 62.4889 197.139 62.8535C197.421 63.2272 197.995 63.6237 198.861 64.043L200.857 65.0137C202.708 65.916 203.633 67.1055 203.633 68.582C203.633 69.7214 203.2 70.6419 202.334 71.3438C201.477 72.0365 200.516 72.3828 199.449 72.3828C198.684 72.3828 197.809 72.2461 196.824 71.9727C196.523 71.8815 196.277 71.8359 196.086 71.8359C195.876 71.8359 195.712 71.9544 195.594 72.1914H195.143V67.7207H195.594C195.849 68.9967 196.337 69.9583 197.057 70.6055C197.777 71.2526 198.583 71.5762 199.477 71.5762C200.105 71.5762 200.616 71.3939 201.008 71.0293C201.409 70.6556 201.609 70.209 201.609 69.6895C201.609 69.0605 201.386 68.5319 200.939 68.1035C200.502 67.6751 199.622 67.1328 198.301 66.4766C196.979 65.8203 196.113 65.2279 195.703 64.6992C195.293 64.1797 195.088 63.5234 195.088 62.7305C195.088 61.7005 195.439 60.8392 196.141 60.1465C196.852 59.4538 197.768 59.1074 198.889 59.1074C199.381 59.1074 199.978 59.2122 200.68 59.4219C201.145 59.5586 201.454 59.627 201.609 59.627C201.755 59.627 201.869 59.5951 201.951 59.5312C202.033 59.4674 202.129 59.3262 202.238 59.1074H202.689ZM217.4 60.4609V68.6914C217.4 69.8581 217.528 70.5964 217.783 70.9062C218.12 71.3073 218.572 71.5078 219.137 71.5078H220.271V72H212.793V71.5078H213.354C213.718 71.5078 214.051 71.4167 214.352 71.2344C214.652 71.0521 214.857 70.806 214.967 70.4961C215.085 70.1862 215.145 69.5846 215.145 68.6914V60.4609H212.711V59.4766H215.145V58.6562C215.145 57.4076 215.345 56.3503 215.746 55.4844C216.147 54.6185 216.758 53.9212 217.578 53.3926C218.408 52.8548 219.337 52.5859 220.367 52.5859C221.324 52.5859 222.204 52.8958 223.006 53.5156C223.535 53.9258 223.799 54.3861 223.799 54.8965C223.799 55.1699 223.68 55.4297 223.443 55.6758C223.206 55.9128 222.951 56.0312 222.678 56.0312C222.468 56.0312 222.245 55.9583 222.008 55.8125C221.78 55.6576 221.497 55.334 221.16 54.8418C220.823 54.3405 220.513 54.0033 220.23 53.8301C219.948 53.6569 219.633 53.5703 219.287 53.5703C218.868 53.5703 218.512 53.6842 218.221 53.9121C217.929 54.1309 217.719 54.4772 217.592 54.9512C217.464 55.416 217.4 56.6237 217.4 58.5742V59.4766H220.627V60.4609H217.4ZM225.494 59.1074V61.9238C226.542 60.0462 227.618 59.1074 228.721 59.1074C229.222 59.1074 229.637 59.2624 229.965 59.5723C230.293 59.873 230.457 60.224 230.457 60.625C230.457 60.9805 230.339 61.2812 230.102 61.5273C229.865 61.7734 229.582 61.8965 229.254 61.8965C228.935 61.8965 228.575 61.7415 228.174 61.4316C227.782 61.1126 227.49 60.9531 227.299 60.9531C227.135 60.9531 226.957 61.0443 226.766 61.2266C226.355 61.6003 225.932 62.2155 225.494 63.0723V69.0742C225.494 69.7669 225.581 70.291 225.754 70.6465C225.872 70.8926 226.082 71.0977 226.383 71.2617C226.684 71.4258 227.117 71.5078 227.682 71.5078V72H221.27V71.5078C221.908 71.5078 222.382 71.4076 222.691 71.207C222.919 71.0612 223.079 70.8288 223.17 70.5098C223.215 70.3548 223.238 69.9128 223.238 69.1836V64.3301C223.238 62.8717 223.206 62.0059 223.143 61.7324C223.088 61.4499 222.979 61.2448 222.814 61.1172C222.66 60.9896 222.464 60.9258 222.227 60.9258C221.944 60.9258 221.625 60.9941 221.27 61.1309L221.133 60.6387L224.92 59.1074H225.494ZM237.279 59.1074C239.175 59.1074 240.697 59.8275 241.846 61.2676C242.821 62.498 243.309 63.9108 243.309 65.5059C243.309 66.627 243.04 67.7617 242.502 68.9102C241.964 70.0586 241.221 70.9245 240.273 71.5078C239.335 72.0911 238.286 72.3828 237.129 72.3828C235.242 72.3828 233.743 71.6309 232.631 70.127C231.692 68.86 231.223 67.4382 231.223 65.8613C231.223 64.7129 231.505 63.5736 232.07 62.4434C232.645 61.304 233.396 60.4655 234.326 59.9277C235.256 59.3809 236.24 59.1074 237.279 59.1074ZM236.855 59.9961C236.372 59.9961 235.885 60.1419 235.393 60.4336C234.91 60.7161 234.518 61.2174 234.217 61.9375C233.916 62.6576 233.766 63.5827 233.766 64.7129C233.766 66.5358 234.126 68.1081 234.846 69.4297C235.575 70.7513 236.532 71.4121 237.717 71.4121C238.601 71.4121 239.33 71.0475 239.904 70.3184C240.479 69.5892 240.766 68.3359 240.766 66.5586C240.766 64.3346 240.287 62.5846 239.33 61.3086C238.683 60.4336 237.858 59.9961 236.855 59.9961ZM248.873 61.7734C249.785 60.862 250.322 60.3379 250.486 60.2012C250.896 59.8548 251.339 59.5859 251.812 59.3945C252.286 59.2031 252.756 59.1074 253.221 59.1074C254.005 59.1074 254.679 59.3353 255.244 59.791C255.809 60.2467 256.188 60.9076 256.379 61.7734C257.318 60.6797 258.111 59.9642 258.758 59.627C259.405 59.2806 260.07 59.1074 260.754 59.1074C261.419 59.1074 262.007 59.2806 262.518 59.627C263.037 59.9642 263.447 60.5202 263.748 61.2949C263.949 61.8236 264.049 62.653 264.049 63.7832V69.1699C264.049 69.9538 264.108 70.4915 264.227 70.7832C264.318 70.9837 264.486 71.1569 264.732 71.3027C264.979 71.4395 265.38 71.5078 265.936 71.5078V72H259.756V71.5078H260.016C260.553 71.5078 260.973 71.403 261.273 71.1934C261.483 71.0475 261.633 70.8151 261.725 70.4961C261.761 70.3411 261.779 69.8991 261.779 69.1699V63.7832C261.779 62.7624 261.656 62.0423 261.41 61.623C261.055 61.0397 260.485 60.748 259.701 60.748C259.218 60.748 258.73 60.8711 258.238 61.1172C257.755 61.3542 257.167 61.8008 256.475 62.457L256.447 62.6074L256.475 63.1953V69.1699C256.475 70.0267 256.52 70.5599 256.611 70.7695C256.712 70.9792 256.894 71.1569 257.158 71.3027C257.423 71.4395 257.874 71.5078 258.512 71.5078V72H252.182V71.5078C252.874 71.5078 253.348 71.4258 253.604 71.2617C253.868 71.0977 254.05 70.8516 254.15 70.5234C254.196 70.3685 254.219 69.9173 254.219 69.1699V63.7832C254.219 62.7624 254.068 62.0286 253.768 61.582C253.367 60.9987 252.806 60.707 252.086 60.707C251.594 60.707 251.106 60.8392 250.623 61.1035C249.867 61.5046 249.283 61.9557 248.873 62.457V69.1699C248.873 69.9902 248.928 70.5234 249.037 70.7695C249.156 71.0156 249.324 71.2025 249.543 71.3301C249.771 71.4486 250.227 71.5078 250.91 71.5078V72H244.717V71.5078C245.291 71.5078 245.692 71.4486 245.92 71.3301C246.148 71.2025 246.321 71.0065 246.439 70.7422C246.558 70.4688 246.617 69.9447 246.617 69.1699V64.3848C246.617 63.0085 246.576 62.1198 246.494 61.7188C246.43 61.418 246.33 61.2129 246.193 61.1035C246.057 60.985 245.87 60.9258 245.633 60.9258C245.378 60.9258 245.072 60.9941 244.717 61.1309L244.512 60.6387L248.285 59.1074H248.873V61.7734Z" fill="#B64926"/>
</svg>
