<svg width="292" height="41" viewBox="0 0 292 41" fill="none" xmlns="http://www.w3.org/2000/svg">
<path d="M56.0469 22V21.5664H56.6445C57.3164 21.5664 57.793 21.3516 58.0742 20.9219C58.2461 20.6641 58.332 20.0859 58.332 19.1875V8.92188C58.332 7.92969 58.2227 7.30859 58.0039 7.05859C57.6992 6.71484 57.2461 6.54297 56.6445 6.54297H56.0469V6.10938H62.5156C64.8906 6.10938 66.6953 6.37891 67.9297 6.91797C69.1719 7.45703 70.168 8.35547 70.918 9.61328C71.6758 10.8711 72.0547 12.3242 72.0547 13.9727C72.0547 16.1836 71.3828 18.0312 70.0391 19.5156C68.5312 21.1719 66.2344 22 63.1484 22H56.0469ZM60.582 20.8516C61.5742 21.0703 62.4062 21.1797 63.0781 21.1797C64.8906 21.1797 66.3945 20.543 67.5898 19.2695C68.7852 17.9961 69.3828 16.2695 69.3828 14.0898C69.3828 11.8945 68.7852 10.1641 67.5898 8.89844C66.3945 7.63281 64.8594 7 62.9844 7C62.2812 7 61.4805 7.11328 60.582 7.33984V20.8516ZM76.8711 10.9492V13.3633C77.7695 11.7539 78.6914 10.9492 79.6367 10.9492C80.0664 10.9492 80.4219 11.082 80.7031 11.3477C80.9844 11.6055 81.125 11.9062 81.125 12.25C81.125 12.5547 81.0234 12.8125 80.8203 13.0234C80.6172 13.2344 80.375 13.3398 80.0938 13.3398C79.8203 13.3398 79.5117 13.207 79.168 12.9414C78.832 12.668 78.582 12.5312 78.418 12.5312C78.2773 12.5312 78.125 12.6094 77.9609 12.7656C77.6094 13.0859 77.2461 13.6133 76.8711 14.3477V19.4922C76.8711 20.0859 76.9453 20.5352 77.0938 20.8398C77.1953 21.0508 77.375 21.2266 77.6328 21.3672C77.8906 21.5078 78.2617 21.5781 78.7461 21.5781V22H73.25V21.5781C73.7969 21.5781 74.2031 21.4922 74.4688 21.3203C74.6641 21.1953 74.8008 20.9961 74.8789 20.7227C74.918 20.5898 74.9375 20.2109 74.9375 19.5859V15.4258C74.9375 14.1758 74.9102 13.4336 74.8555 13.1992C74.8086 12.957 74.7148 12.7812 74.5742 12.6719C74.4414 12.5625 74.2734 12.5078 74.0703 12.5078C73.8281 12.5078 73.5547 12.5664 73.25 12.6836L73.1328 12.2617L76.3789 10.9492H76.8711ZM86.9727 10.9492C88.5977 10.9492 89.9023 11.5664 90.8867 12.8008C91.7227 13.8555 92.1406 15.0664 92.1406 16.4336C92.1406 17.3945 91.9102 18.3672 91.4492 19.3516C90.9883 20.3359 90.3516 21.0781 89.5391 21.5781C88.7344 22.0781 87.8359 22.3281 86.8438 22.3281C85.2266 22.3281 83.9414 21.6836 82.9883 20.3945C82.1836 19.3086 81.7812 18.0898 81.7812 16.7383C81.7812 15.7539 82.0234 14.7773 82.5078 13.8086C83 12.832 83.6445 12.1133 84.4414 11.6523C85.2383 11.1836 86.082 10.9492 86.9727 10.9492ZM86.6094 11.7109C86.1953 11.7109 85.7773 11.8359 85.3555 12.0859C84.9414 12.3281 84.6055 12.7578 84.3477 13.375C84.0898 13.9922 83.9609 14.7852 83.9609 15.7539C83.9609 17.3164 84.2695 18.6641 84.8867 19.7969C85.5117 20.9297 86.332 21.4961 87.3477 21.4961C88.1055 21.4961 88.7305 21.1836 89.2227 20.5586C89.7148 19.9336 89.9609 18.8594 89.9609 17.3359C89.9609 15.4297 89.5508 13.9297 88.7305 12.8359C88.1758 12.0859 87.4688 11.7109 86.6094 11.7109ZM92.9492 12.332L96.2539 10.9961H96.6992V13.5039C97.2539 12.5586 97.8086 11.8984 98.3633 11.5234C98.9258 11.1406 99.5156 10.9492 100.133 10.9492C101.211 10.9492 102.109 11.3711 102.828 12.2148C103.711 13.2461 104.152 14.5898 104.152 16.2461C104.152 18.0977 103.621 19.6289 102.559 20.8398C101.684 21.832 100.582 22.3281 99.2539 22.3281C98.6758 22.3281 98.1758 22.2461 97.7539 22.082C97.4414 21.9648 97.0898 21.7305 96.6992 21.3789V24.6484C96.6992 25.3828 96.7422 25.8477 96.8281 26.043C96.9219 26.2461 97.0781 26.4062 97.2969 26.5234C97.5234 26.6406 97.9297 26.6992 98.5156 26.6992V27.1328H92.8906V26.6992H93.1836C93.6133 26.707 93.9805 26.625 94.2852 26.4531C94.4336 26.3672 94.5469 26.2266 94.625 26.0312C94.7109 25.8438 94.7539 25.3594 94.7539 24.5781V14.4297C94.7539 13.7344 94.7227 13.293 94.6602 13.1055C94.5977 12.918 94.4961 12.7773 94.3555 12.6836C94.2227 12.5898 94.0391 12.543 93.8047 12.543C93.6172 12.543 93.3789 12.5977 93.0898 12.707L92.9492 12.332ZM96.6992 14.1953V18.2031C96.6992 19.0703 96.7344 19.6406 96.8047 19.9141C96.9141 20.3672 97.1797 20.7656 97.6016 21.1094C98.0312 21.4531 98.5703 21.625 99.2188 21.625C100 21.625 100.633 21.3203 101.117 20.7109C101.75 19.9141 102.066 18.793 102.066 17.3477C102.066 15.707 101.707 14.4453 100.988 13.5625C100.488 12.9531 99.8945 12.6484 99.207 12.6484C98.832 12.6484 98.4609 12.7422 98.0938 12.9297C97.8125 13.0703 97.3477 13.4922 96.6992 14.1953ZM114.453 5.33594C114.781 5.33594 115.059 5.45312 115.285 5.6875C115.52 5.91406 115.637 6.19141 115.637 6.51953C115.637 6.84766 115.52 7.12891 115.285 7.36328C115.059 7.59766 114.781 7.71484 114.453 7.71484C114.125 7.71484 113.844 7.59766 113.609 7.36328C113.375 7.12891 113.258 6.84766 113.258 6.51953C113.258 6.19141 113.371 5.91406 113.598 5.6875C113.832 5.45312 114.117 5.33594 114.453 5.33594ZM115.426 10.9492V19.5742C115.426 20.2461 115.473 20.6953 115.566 20.9219C115.668 21.1406 115.812 21.3047 116 21.4141C116.195 21.5234 116.547 21.5781 117.055 21.5781V22H111.84V21.5781C112.363 21.5781 112.715 21.5273 112.895 21.4258C113.074 21.3242 113.215 21.1562 113.316 20.9219C113.426 20.6875 113.48 20.2383 113.48 19.5742V15.4375C113.48 14.2734 113.445 13.5195 113.375 13.1758C113.32 12.9258 113.234 12.7539 113.117 12.6602C113 12.5586 112.84 12.5078 112.637 12.5078C112.418 12.5078 112.152 12.5664 111.84 12.6836L111.676 12.2617L114.91 10.9492H115.426ZM121.531 13.2227C122.789 11.707 123.988 10.9492 125.129 10.9492C125.715 10.9492 126.219 11.0977 126.641 11.3945C127.062 11.6836 127.398 12.1641 127.648 12.8359C127.82 13.3047 127.906 14.0234 127.906 14.9922V19.5742C127.906 20.2539 127.961 20.7148 128.07 20.957C128.156 21.1523 128.293 21.3047 128.48 21.4141C128.676 21.5234 129.031 21.5781 129.547 21.5781V22H124.238V21.5781H124.461C124.961 21.5781 125.309 21.5039 125.504 21.3555C125.707 21.1992 125.848 20.9727 125.926 20.6758C125.957 20.5586 125.973 20.1914 125.973 19.5742V15.1797C125.973 14.2031 125.844 13.4961 125.586 13.0586C125.336 12.6133 124.91 12.3906 124.309 12.3906C123.379 12.3906 122.453 12.8984 121.531 13.9141V19.5742C121.531 20.3008 121.574 20.75 121.66 20.9219C121.77 21.1484 121.918 21.3164 122.105 21.4258C122.301 21.5273 122.691 21.5781 123.277 21.5781V22H117.969V21.5781H118.203C118.75 21.5781 119.117 21.4414 119.305 21.168C119.5 20.8867 119.598 20.3555 119.598 19.5742V15.5898C119.598 14.3008 119.566 13.5156 119.504 13.2344C119.449 12.9531 119.359 12.7617 119.234 12.6602C119.117 12.5586 118.957 12.5078 118.754 12.5078C118.535 12.5078 118.273 12.5664 117.969 12.6836L117.793 12.2617L121.027 10.9492H121.531V13.2227ZM133.52 7.73828V11.2656H136.027V12.0859H133.52V19.0469C133.52 19.7422 133.617 20.2109 133.812 20.4531C134.016 20.6953 134.273 20.8164 134.586 20.8164C134.844 20.8164 135.094 20.7383 135.336 20.582C135.578 20.418 135.766 20.1797 135.898 19.8672H136.355C136.082 20.6328 135.695 21.2109 135.195 21.6016C134.695 21.9844 134.18 22.1758 133.648 22.1758C133.289 22.1758 132.938 22.0781 132.594 21.8828C132.25 21.6797 131.996 21.3945 131.832 21.0273C131.668 20.6523 131.586 20.0781 131.586 19.3047V12.0859H129.887V11.6992C130.316 11.5273 130.754 11.2383 131.199 10.832C131.652 10.418 132.055 9.92969 132.406 9.36719C132.586 9.07031 132.836 8.52734 133.156 7.73828H133.52ZM142.332 10.9492C143.957 10.9492 145.262 11.5664 146.246 12.8008C147.082 13.8555 147.5 15.0664 147.5 16.4336C147.5 17.3945 147.27 18.3672 146.809 19.3516C146.348 20.3359 145.711 21.0781 144.898 21.5781C144.094 22.0781 143.195 22.3281 142.203 22.3281C140.586 22.3281 139.301 21.6836 138.348 20.3945C137.543 19.3086 137.141 18.0898 137.141 16.7383C137.141 15.7539 137.383 14.7773 137.867 13.8086C138.359 12.832 139.004 12.1133 139.801 11.6523C140.598 11.1836 141.441 10.9492 142.332 10.9492ZM141.969 11.7109C141.555 11.7109 141.137 11.8359 140.715 12.0859C140.301 12.3281 139.965 12.7578 139.707 13.375C139.449 13.9922 139.32 14.7852 139.32 15.7539C139.32 17.3164 139.629 18.6641 140.246 19.7969C140.871 20.9297 141.691 21.4961 142.707 21.4961C143.465 21.4961 144.09 21.1836 144.582 20.5586C145.074 19.9336 145.32 18.8594 145.32 17.3359C145.32 15.4297 144.91 13.9297 144.09 12.8359C143.535 12.0859 142.828 11.7109 141.969 11.7109ZM154.309 12.332L157.613 10.9961H158.059V13.5039C158.613 12.5586 159.168 11.8984 159.723 11.5234C160.285 11.1406 160.875 10.9492 161.492 10.9492C162.57 10.9492 163.469 11.3711 164.188 12.2148C165.07 13.2461 165.512 14.5898 165.512 16.2461C165.512 18.0977 164.98 19.6289 163.918 20.8398C163.043 21.832 161.941 22.3281 160.613 22.3281C160.035 22.3281 159.535 22.2461 159.113 22.082C158.801 21.9648 158.449 21.7305 158.059 21.3789V24.6484C158.059 25.3828 158.102 25.8477 158.188 26.043C158.281 26.2461 158.438 26.4062 158.656 26.5234C158.883 26.6406 159.289 26.6992 159.875 26.6992V27.1328H154.25V26.6992H154.543C154.973 26.707 155.34 26.625 155.645 26.4531C155.793 26.3672 155.906 26.2266 155.984 26.0312C156.07 25.8438 156.113 25.3594 156.113 24.5781V14.4297C156.113 13.7344 156.082 13.293 156.02 13.1055C155.957 12.918 155.855 12.7773 155.715 12.6836C155.582 12.5898 155.398 12.543 155.164 12.543C154.977 12.543 154.738 12.5977 154.449 12.707L154.309 12.332ZM158.059 14.1953V18.2031C158.059 19.0703 158.094 19.6406 158.164 19.9141C158.273 20.3672 158.539 20.7656 158.961 21.1094C159.391 21.4531 159.93 21.625 160.578 21.625C161.359 21.625 161.992 21.3203 162.477 20.7109C163.109 19.9141 163.426 18.793 163.426 17.3477C163.426 15.707 163.066 14.4453 162.348 13.5625C161.848 12.9531 161.254 12.6484 160.566 12.6484C160.191 12.6484 159.82 12.7422 159.453 12.9297C159.172 13.0703 158.707 13.4922 158.059 14.1953ZM172.332 10.9492C173.957 10.9492 175.262 11.5664 176.246 12.8008C177.082 13.8555 177.5 15.0664 177.5 16.4336C177.5 17.3945 177.27 18.3672 176.809 19.3516C176.348 20.3359 175.711 21.0781 174.898 21.5781C174.094 22.0781 173.195 22.3281 172.203 22.3281C170.586 22.3281 169.301 21.6836 168.348 20.3945C167.543 19.3086 167.141 18.0898 167.141 16.7383C167.141 15.7539 167.383 14.7773 167.867 13.8086C168.359 12.832 169.004 12.1133 169.801 11.6523C170.598 11.1836 171.441 10.9492 172.332 10.9492ZM171.969 11.7109C171.555 11.7109 171.137 11.8359 170.715 12.0859C170.301 12.3281 169.965 12.7578 169.707 13.375C169.449 13.9922 169.32 14.7852 169.32 15.7539C169.32 17.3164 169.629 18.6641 170.246 19.7969C170.871 20.9297 171.691 21.4961 172.707 21.4961C173.465 21.4961 174.09 21.1836 174.582 20.5586C175.074 19.9336 175.32 18.8594 175.32 17.3359C175.32 15.4297 174.91 13.9297 174.09 12.8359C173.535 12.0859 172.828 11.7109 171.969 11.7109ZM186.02 10.9492V14.6055H185.633C185.336 13.457 184.953 12.6758 184.484 12.2617C184.023 11.8477 183.434 11.6406 182.715 11.6406C182.168 11.6406 181.727 11.7852 181.391 12.0742C181.055 12.3633 180.887 12.6836 180.887 13.0352C180.887 13.4727 181.012 13.8477 181.262 14.1602C181.504 14.4805 181.996 14.8203 182.738 15.1797L184.449 16.0117C186.035 16.7852 186.828 17.8047 186.828 19.0703C186.828 20.0469 186.457 20.8359 185.715 21.4375C184.98 22.0312 184.156 22.3281 183.242 22.3281C182.586 22.3281 181.836 22.2109 180.992 21.9766C180.734 21.8984 180.523 21.8594 180.359 21.8594C180.18 21.8594 180.039 21.9609 179.938 22.1641H179.551V18.332H179.938C180.156 19.4258 180.574 20.25 181.191 20.8047C181.809 21.3594 182.5 21.6367 183.266 21.6367C183.805 21.6367 184.242 21.4805 184.578 21.168C184.922 20.8477 185.094 20.4648 185.094 20.0195C185.094 19.4805 184.902 19.0273 184.52 18.6602C184.145 18.293 183.391 17.8281 182.258 17.2656C181.125 16.7031 180.383 16.1953 180.031 15.7422C179.68 15.2969 179.504 14.7344 179.504 14.0547C179.504 13.1719 179.805 12.4336 180.406 11.8398C181.016 11.2461 181.801 10.9492 182.762 10.9492C183.184 10.9492 183.695 11.0391 184.297 11.2188C184.695 11.3359 184.961 11.3945 185.094 11.3945C185.219 11.3945 185.316 11.3672 185.387 11.3125C185.457 11.2578 185.539 11.1367 185.633 10.9492H186.02ZM191.551 7.73828V11.2656H194.059V12.0859H191.551V19.0469C191.551 19.7422 191.648 20.2109 191.844 20.4531C192.047 20.6953 192.305 20.8164 192.617 20.8164C192.875 20.8164 193.125 20.7383 193.367 20.582C193.609 20.418 193.797 20.1797 193.93 19.8672H194.387C194.113 20.6328 193.727 21.2109 193.227 21.6016C192.727 21.9844 192.211 22.1758 191.68 22.1758C191.32 22.1758 190.969 22.0781 190.625 21.8828C190.281 21.6797 190.027 21.3945 189.863 21.0273C189.699 20.6523 189.617 20.0781 189.617 19.3047V12.0859H187.918V11.6992C188.348 11.5273 188.785 11.2383 189.23 10.832C189.684 10.418 190.086 9.92969 190.438 9.36719C190.617 9.07031 190.867 8.52734 191.188 7.73828H191.551ZM204.055 13.1172C205.094 11.6719 206.215 10.9492 207.418 10.9492C208.52 10.9492 209.48 11.4219 210.301 12.3672C211.121 13.3047 211.531 14.5898 211.531 16.2227C211.531 18.1289 210.898 19.6641 209.633 20.8281C208.547 21.8281 207.336 22.3281 206 22.3281C205.375 22.3281 204.738 22.2148 204.09 21.9883C203.449 21.7617 202.793 21.4219 202.121 20.9688V9.84766C202.121 8.62891 202.09 7.87891 202.027 7.59766C201.973 7.31641 201.883 7.125 201.758 7.02344C201.633 6.92187 201.477 6.87109 201.289 6.87109C201.07 6.87109 200.797 6.93359 200.469 7.05859L200.305 6.64844L203.527 5.33594H204.055V13.1172ZM204.055 13.8672V20.2891C204.453 20.6797 204.863 20.9766 205.285 21.1797C205.715 21.375 206.152 21.4727 206.598 21.4727C207.309 21.4727 207.969 21.082 208.578 20.3008C209.195 19.5195 209.504 18.3828 209.504 16.8906C209.504 15.5156 209.195 14.4609 208.578 13.7266C207.969 12.9844 207.273 12.6133 206.492 12.6133C206.078 12.6133 205.664 12.7188 205.25 12.9297C204.938 13.0859 204.539 13.3984 204.055 13.8672ZM218.363 10.9492C219.988 10.9492 221.293 11.5664 222.277 12.8008C223.113 13.8555 223.531 15.0664 223.531 16.4336C223.531 17.3945 223.301 18.3672 222.84 19.3516C222.379 20.3359 221.742 21.0781 220.93 21.5781C220.125 22.0781 219.227 22.3281 218.234 22.3281C216.617 22.3281 215.332 21.6836 214.379 20.3945C213.574 19.3086 213.172 18.0898 213.172 16.7383C213.172 15.7539 213.414 14.7773 213.898 13.8086C214.391 12.832 215.035 12.1133 215.832 11.6523C216.629 11.1836 217.473 10.9492 218.363 10.9492ZM218 11.7109C217.586 11.7109 217.168 11.8359 216.746 12.0859C216.332 12.3281 215.996 12.7578 215.738 13.375C215.48 13.9922 215.352 14.7852 215.352 15.7539C215.352 17.3164 215.66 18.6641 216.277 19.7969C216.902 20.9297 217.723 21.4961 218.738 21.4961C219.496 21.4961 220.121 21.1836 220.613 20.5586C221.105 19.9336 221.352 18.8594 221.352 17.3359C221.352 15.4297 220.941 13.9297 220.121 12.8359C219.566 12.0859 218.859 11.7109 218 11.7109ZM224.68 11.2656H229.73V11.6992C229.41 11.6992 229.184 11.7539 229.051 11.8633C228.926 11.9727 228.863 12.1172 228.863 12.2969C228.863 12.4844 229 12.7734 229.273 13.1641C229.359 13.2891 229.488 13.4844 229.66 13.75L230.422 14.9688L231.301 13.75C231.863 12.9766 232.145 12.4883 232.145 12.2852C232.145 12.1211 232.078 11.9844 231.945 11.875C231.812 11.7578 231.598 11.6992 231.301 11.6992V11.2656H234.934V11.6992C234.551 11.7227 234.219 11.8281 233.938 12.0156C233.555 12.2812 233.031 12.8594 232.367 13.75L230.902 15.707L233.574 19.5508C234.23 20.4961 234.699 21.0664 234.98 21.2617C235.262 21.4492 235.625 21.5547 236.07 21.5781V22H231.008V21.5781C231.359 21.5781 231.633 21.5 231.828 21.3438C231.977 21.2344 232.051 21.0898 232.051 20.9102C232.051 20.7305 231.801 20.2773 231.301 19.5508L229.73 17.2539L228.008 19.5508C227.477 20.2617 227.211 20.6836 227.211 20.8164C227.211 21.0039 227.297 21.1758 227.469 21.332C227.648 21.4805 227.914 21.5625 228.266 21.5781V22H224.762V21.5781C225.043 21.5391 225.289 21.4414 225.5 21.2852C225.797 21.0586 226.297 20.4805 227 19.5508L229.25 16.5625L227.211 13.6094C226.633 12.7656 226.184 12.2383 225.863 12.0273C225.551 11.8086 225.156 11.6992 224.68 11.6992V11.2656Z" fill="#6B5B2D"/>
</svg>
